<svg width="163" height="47" viewBox="0 0 163 47" fill="none" xmlns="http://www.w3.org/2000/svg">
<path d="M150.352 1.9375V1.18182H154.855V1.9375H153.04V7H152.165V1.9375H150.352ZM155.81 1.18182H156.875L158.728 5.70455H158.796L160.648 1.18182H161.714V7H160.878V2.78977H160.824L159.108 6.99148H158.415L156.699 2.78693H156.645V7H155.81V1.18182Z" fill="black"/>
<mask id="mask0_3921_130040" style="mask-type:luminance" maskUnits="userSpaceOnUse" x="0" y="8" width="150" height="39">
<path d="M150 8H0V46.2859H150V8Z" fill="white"/>
</mask>
<g mask="url(#mask0_3921_130040)">
<mask id="mask1_3921_130040" style="mask-type:luminance" maskUnits="userSpaceOnUse" x="-17" y="8" width="167" height="39">
<path d="M149.923 8H-16.0703V46.2859H149.923V8Z" fill="white"/>
</mask>
<g mask="url(#mask1_3921_130040)">
<g opacity="0.99">
<mask id="mask2_3921_130040" style="mask-type:luminance" maskUnits="userSpaceOnUse" x="44" y="38" width="97" height="9">
<path d="M140.951 38.9473H44.9375V46.2682H140.951V38.9473Z" fill="white"/>
</mask>
<g mask="url(#mask2_3921_130040)">
<path d="M44.9375 39.123H48.8076V39.8073H45.6171V42.0064H48.8076V42.6906H45.6171V45.4566H48.8076V46.1408H44.9375V39.123Z" fill="#727272"/>
<path d="M50.337 40.9512H51.1111L52.4421 42.867L53.773 40.9512H54.5376L52.83 43.4142L54.7557 46.1412H53.9723L52.443 43.9616L50.9328 46.1412H50.1587L52.0561 43.4142L50.337 40.9512Z" fill="#727272"/>
<path d="M61.353 45.0954C60.8622 45.8675 60.0125 46.2682 59.0025 46.2682C57.3507 46.2682 56.247 45.0368 56.247 43.5903C56.2408 43.2217 56.3092 42.8557 56.4483 42.5143C56.5873 42.1729 56.7941 41.8631 57.0561 41.6037C57.318 41.3444 57.6298 41.1407 57.9726 41.0051C58.3154 40.8694 58.6821 40.8046 59.0506 40.8145C60.0133 40.8145 60.8912 41.2251 61.3538 42.0265L60.8347 42.3589C60.6308 42.0705 60.3584 41.8374 60.042 41.6804C59.7256 41.5235 59.3752 41.4476 59.0223 41.4597C58.7463 41.4603 58.4732 41.5152 58.2185 41.6214C57.9637 41.7276 57.7324 41.8829 57.5377 42.0784C57.343 42.274 57.1888 42.506 57.0837 42.7612C56.9787 43.0164 56.9249 43.2897 56.9256 43.5657C56.9262 43.8416 56.9811 44.1148 57.0873 44.3695C57.1935 44.6242 57.3488 44.8555 57.5443 45.0502C57.7399 45.2449 57.9719 45.3992 58.2271 45.5042C58.4822 45.6093 58.7556 45.663 59.0316 45.6624C59.3829 45.6663 59.7301 45.5858 60.0439 45.4276C60.3576 45.2694 60.6288 45.0382 60.8347 44.7535L61.353 45.0954Z" fill="#727272"/>
<path d="M64.0528 43.6006C64.0812 44.793 64.8647 45.663 65.9407 45.663C66.9886 45.663 67.4889 45.0472 67.857 44.4211L68.3951 44.7143C67.8853 45.7505 67.1017 46.2684 66.0069 46.2684C64.3455 46.2684 63.3921 44.9489 63.3921 43.561C63.3921 42.1445 64.4011 40.8145 65.9691 40.8145C67.3945 40.8145 68.546 41.8798 68.5649 43.6L64.0528 43.6006ZM67.8562 43.0142C67.5919 41.939 66.8462 41.4601 65.9778 41.4601C65.0811 41.4601 64.4108 41.9586 64.1182 43.0142H67.8562Z" fill="#727272"/>
<path d="M71.3499 38.9473H70.708V46.1411H71.3499V38.9473Z" fill="#727272"/>
<path d="M81.7337 40.9514H82.3661V46.1414H81.7337V45.2519C81.5001 45.5676 81.1956 45.8241 80.8447 46.0006C80.4938 46.1771 80.1064 46.2688 79.7137 46.2683C78.2505 46.2683 77.146 45.007 77.146 43.5322C77.146 42.0574 78.2787 40.8155 79.7323 40.8155C80.1305 40.8118 80.5232 40.9094 80.8733 41.0992C81.2234 41.289 81.5195 41.5647 81.7337 41.9005V40.9514ZM77.8067 43.5516C77.8067 44.6756 78.6563 45.6627 79.7796 45.6627C80.0498 45.6616 80.317 45.6061 80.5653 45.4995C80.8135 45.3929 81.0378 45.2373 81.2245 45.0421C81.4113 44.8469 81.5569 44.616 81.6525 44.3633C81.748 44.1106 81.7917 43.8412 81.7809 43.5712C81.7809 42.3681 80.9123 41.46 79.7889 41.46C78.6375 41.46 77.8067 42.4374 77.8067 43.5516Z" fill="#727272"/>
<path d="M85.5003 41.8798C86.0196 41.1762 86.6425 40.8145 87.3789 40.8145C88.4737 40.8145 89.2385 41.5963 89.2385 43.2286V46.1413H88.5964V43.3165C88.5964 42.094 88.2277 41.4205 87.2561 41.4205C86.995 41.4203 86.7378 41.4844 86.5073 41.6071C86.2768 41.7298 86.0801 41.9074 85.9344 42.1241C85.557 42.6323 85.5003 43.1407 85.5003 43.9617V46.1413H84.8584V40.9513H85.5003V41.8798Z" fill="#727272"/>
<path d="M96.026 45.2521C95.7924 45.5678 95.4878 45.8243 95.137 46.0008C94.7861 46.1774 94.3987 46.2691 94.0059 46.2686C92.5428 46.2686 91.4385 45.0072 91.4385 43.5325C91.4385 42.0577 92.5713 40.8158 94.025 40.8158C94.4231 40.8121 94.8157 40.9098 95.1657 41.0995C95.5158 41.2893 95.8118 41.565 96.026 41.9007V38.9482H96.6679V46.1416H96.026V45.2521ZM92.0992 43.5515C92.0992 44.6754 92.9488 45.6625 94.0721 45.6625C95.1006 45.6625 96.0638 44.8613 96.0638 43.5711C96.0638 42.368 95.2048 41.4598 94.0816 41.4598C92.9298 41.4598 92.0992 42.4372 92.0992 43.5515Z" fill="#727272"/>
<path d="M102.917 39.123H106.787V39.8073H103.597V42.0064H106.787V42.6906H103.597V45.4566H106.787V46.1408H102.917V39.123Z" fill="#727272"/>
<path d="M108.326 40.9512H109.101L110.432 42.867L111.762 40.9512H112.527L110.819 43.4142L112.745 46.1412H111.962L110.432 43.9616L108.922 46.1412H108.148L110.045 43.4142L108.326 40.9512Z" fill="#727272"/>
<path d="M119.333 45.0954C118.843 45.8675 117.993 46.2682 116.983 46.2682C115.331 46.2682 114.226 45.0368 114.226 43.5903C114.22 43.2217 114.289 42.8557 114.428 42.5143C114.567 42.1729 114.774 41.8631 115.036 41.6037C115.298 41.3444 115.609 41.1407 115.952 41.0051C116.295 40.8694 116.662 40.8046 117.03 40.8145C117.993 40.8145 118.871 41.2251 119.333 42.0265L118.814 42.3589C118.61 42.0705 118.338 41.8374 118.021 41.6804C117.705 41.5234 117.355 41.4476 117.002 41.4597C116.726 41.4603 116.452 41.5153 116.198 41.6214C115.943 41.7276 115.712 41.8829 115.517 42.0785C115.322 42.2741 115.168 42.5061 115.063 42.7613C114.958 43.0165 114.904 43.2898 114.905 43.5658C114.906 43.8417 114.961 44.1149 115.067 44.3696C115.173 44.6243 115.328 44.8556 115.524 45.0503C115.719 45.245 115.951 45.3992 116.207 45.5042C116.462 45.6093 116.735 45.663 117.011 45.6624C117.362 45.6663 117.71 45.5858 118.023 45.4276C118.337 45.2695 118.608 45.0383 118.814 44.7535L119.333 45.0954Z" fill="#727272"/>
<path d="M122.033 43.6006C122.061 44.793 122.845 45.663 123.921 45.663C124.969 45.663 125.469 45.0472 125.837 44.4211L126.375 44.7143C125.865 45.7505 125.082 46.2684 123.987 46.2684C122.325 46.2684 121.372 44.9489 121.372 43.561C121.372 42.1445 122.382 40.8145 123.949 40.8145C125.375 40.8145 126.526 41.8798 126.545 43.6L122.033 43.6006ZM125.836 43.0142C125.572 41.939 124.826 41.4601 123.958 41.4601C123.061 41.4601 122.391 41.9586 122.098 43.0142H125.836Z" fill="#727272"/>
<path d="M129.198 43.6006C129.226 44.793 130.01 45.663 131.086 45.663C132.134 45.663 132.634 45.0472 133.002 44.4211L133.54 44.7143C133.031 45.7505 132.247 46.2684 131.152 46.2684C129.491 46.2684 128.537 44.9489 128.537 43.561C128.537 42.1445 129.547 40.8145 131.114 40.8145C132.54 40.8145 133.691 41.8798 133.71 43.6L129.198 43.6006ZM133.001 43.0142C132.737 41.939 131.991 41.4601 131.123 41.4601C130.226 41.4601 129.556 41.9586 129.263 43.0142H133.001Z" fill="#727272"/>
<path d="M140.309 45.2521C140.075 45.5679 139.771 45.8243 139.42 46.0009C139.069 46.1774 138.681 46.2691 138.289 46.2686C136.826 46.2686 135.721 45.0072 135.721 43.5325C135.721 42.0577 136.854 40.8158 138.308 40.8158C138.706 40.8121 139.098 40.9098 139.448 41.0995C139.798 41.2893 140.095 41.565 140.309 41.9007V38.9482H140.951V46.1416H140.309V45.2521ZM136.382 43.5515C136.382 44.6754 137.231 45.6625 138.355 45.6625C139.383 45.6625 140.347 44.8613 140.347 43.5711C140.347 42.368 139.487 41.4598 138.364 41.4598C137.212 41.4598 136.382 42.4372 136.382 43.5515Z" fill="#727272"/>
</g>
</g>
</g>
<path d="M46.585 17.3302H39.7954V13.3291H58.2852V17.3302H51.4956V34.547H46.585V17.3302Z" fill="#6F32CD"/>
<mask id="mask3_3921_130040" style="mask-type:luminance" maskUnits="userSpaceOnUse" x="-17" y="8" width="167" height="39">
<path d="M150 8H-16.106V46.4217H150V8Z" fill="white"/>
</mask>
<g mask="url(#mask3_3921_130040)">
<path d="M60.376 25.2109V13.3291H65.2867V25.0291C65.2867 29.0605 67.0445 30.7277 70.015 30.7277C73.016 30.7277 74.7436 29.0605 74.7436 25.0291V13.3291H79.5935V25.2109C80.5777 38.127 59.3918 38.1263 60.376 25.2109Z" fill="#6F32CD"/>
<path d="M88.4732 17.3302H81.6836V13.3291H100.173V17.3302H93.3838V34.547H88.4732V17.3302Z" fill="#6F32CD"/>
<path d="M101.173 23.9371C100.906 9.51716 124.644 9.48048 124.391 23.9371C124.642 38.3938 100.904 38.355 101.173 23.9371ZM119.42 23.9371C119.585 14.9721 105.978 14.9732 106.144 23.9371C105.979 32.9022 119.586 32.9011 119.42 23.9371Z" fill="#6F32CD"/>
<path d="M140.698 34.546L135.575 27.1803L130.543 34.546H124.907L132.757 23.7554L126.065 14.3828H131.642L135.758 20.2083L140.547 13.3281H145.851L138.455 23.5739L146.367 34.5466L140.698 34.546Z" fill="#6F32CD"/>
</g>
<mask id="mask4_3921_130040" style="mask-type:luminance" maskUnits="userSpaceOnUse" x="16" y="29" width="18" height="18">
<path d="M16.6385 30.4227C16.6467 30.683 16.6734 30.9424 16.7182 31.1989L18.5512 45.1579C18.5823 45.3668 18.6706 45.563 18.8063 45.7248C18.9421 45.8867 19.1199 46.0078 19.3202 46.0749C19.5205 46.1419 19.7354 46.1522 19.9412 46.1047C20.147 46.0572 20.3357 45.9537 20.4863 45.8056C34.8242 29.8631 41.6506 31.928 18.6296 29.2897C18.5075 29.2724 18.3843 29.2637 18.2609 29.2637C17.4968 29.2637 16.7301 29.6033 16.6377 30.4225" fill="white"/>
</mask>
<g mask="url(#mask4_3921_130040)">
<path d="M48.6194 32.6859L36.6722 56.3189L9.6499 43.051L21.5965 19.418L48.6194 32.6859Z" fill="url(#paint0_linear_3921_130040)"/>
</g>
<mask id="mask5_3921_130040" style="mask-type:luminance" maskUnits="userSpaceOnUse" x="3" y="32" width="12" height="12">
<path d="M4.19882 33.3163L3.5148 41.8993C3.50078 42.0894 3.52819 42.2802 3.59515 42.4587C3.66211 42.6371 3.76702 42.7989 3.90262 42.9328C4.03822 43.0667 4.20129 43.1696 4.38055 43.2343C4.55981 43.2991 4.75098 43.3241 4.94087 43.3077L13.5667 42.5769C13.741 42.5628 13.9108 42.5141 14.0661 42.4338C14.2215 42.3535 14.3593 42.2431 14.4716 42.109C14.5839 41.9749 14.6684 41.8199 14.7202 41.6529C14.7721 41.4859 14.7902 41.3102 14.7735 41.1361L14.0959 34.3091C14.0551 33.9042 13.8745 33.5263 13.5851 33.2402C13.2958 32.9542 12.9158 32.7779 12.5105 32.7417L5.64002 32.1097C5.59714 32.1055 5.55426 32.1035 5.51195 32.1035C5.18115 32.1052 4.86293 32.2305 4.61992 32.455C4.37691 32.6794 4.22669 32.9867 4.19882 33.3163Z" fill="white"/>
</mask>
<g mask="url(#mask5_3921_130040)">
<path d="M20.4584 37.295L9.60015 49.077L-2.16699 38.1946L8.69045 26.4121L20.4584 37.295Z" fill="url(#paint1_linear_3921_130040)"/>
</g>
<mask id="mask6_3921_130040" style="mask-type:luminance" maskUnits="userSpaceOnUse" x="0" y="13" width="34" height="21">
<path d="M15.6018 13.4143C12.7647 12.6651 2.27882 25.5391 0.251395 26.9201C0.139228 27.0352 0.0607688 27.1788 0.0245544 27.3354C-0.0116599 27.492 -0.00424202 27.6555 0.0459992 27.8081C0.0962403 27.9608 0.187381 28.0967 0.309506 28.2012C0.431632 28.3056 0.580064 28.3746 0.738652 28.4005C0.963555 28.4166 32.3756 33.1279 32.5854 33.108C32.7589 33.1052 32.9302 33.0683 33.0894 32.9994C33.2487 32.9304 33.3928 32.8308 33.5135 32.7061C33.6342 32.5815 33.7292 32.4343 33.7931 32.2729C33.8569 32.1116 33.8883 31.9392 33.8855 31.7657L33.4004 14.6147C33.3927 14.2717 33.251 13.9453 33.0057 13.7054C32.7604 13.4655 32.431 13.3312 32.0879 13.3311L15.6018 13.4143Z" fill="white"/>
</mask>
<g mask="url(#mask6_3921_130040)">
<path d="M50.4548 20.2604L21.2217 42.9772L-16.8062 25.5322L12.427 2.81543L50.4548 20.2604Z" fill="url(#paint2_linear_3921_130040)"/>
</g>
<mask id="mask7_3921_130040" style="mask-type:luminance" maskUnits="userSpaceOnUse" x="-16" y="28" width="167" height="11">
<path d="M150.543 28.376H-15.3691V38.0784H150.543V28.376Z" fill="white"/>
</mask>
<g mask="url(#mask7_3921_130040)">
<g opacity="0.34">
<mask id="mask8_3921_130040" style="mask-type:luminance" maskUnits="userSpaceOnUse" x="16" y="30" width="18" height="8">
<path d="M33.5121 30.7617H16.6387V37.7058H33.5121V30.7617Z" fill="white"/>
</mask>
<g mask="url(#mask8_3921_130040)">
<mask id="mask9_3921_130040" style="mask-type:luminance" maskUnits="userSpaceOnUse" x="16" y="30" width="18" height="8">
<path d="M33.5119 30.7617H16.6387V37.7058H33.5119V30.7617Z" fill="white"/>
</mask>
<g mask="url(#mask9_3921_130040)">
<path d="M16.6387 30.7617L32.4412 33.1107C32.6376 33.1259 32.8349 33.0985 33.0197 33.0304C33.2044 32.9623 33.3723 32.855 33.5119 32.716C33.4339 32.8376 33.3417 32.9494 33.2372 33.049L17.5749 37.7062L16.6387 30.7617Z" fill="black"/>
</g>
</g>
</g>
</g>
<mask id="mask10_3921_130040" style="mask-type:luminance" maskUnits="userSpaceOnUse" x="126" y="8" width="24" height="20">
<path d="M144.207 8L135.766 20.2138L131.661 14.3832H126.064L135.579 27.7111L149.924 8H144.207Z" fill="white"/>
</mask>
<g mask="url(#mask10_3921_130040)">
<path d="M149.924 8H126.064V27.7111H149.924V8Z" fill="#FFB400"/>
</g>
</g>
<defs>
<linearGradient id="paint0_linear_3921_130040" x1="-16.07" y1="52.9979" x2="-15.8751" y2="52.9979" gradientUnits="userSpaceOnUse">
<stop stop-color="#9300E1"/>
<stop offset="1" stop-color="#6725CA"/>
</linearGradient>
<linearGradient id="paint1_linear_3921_130040" x1="-16.059" y1="52.9528" x2="-15.878" y2="52.9528" gradientUnits="userSpaceOnUse">
<stop stop-color="#FFC727"/>
<stop offset="1" stop-color="#FFB400"/>
</linearGradient>
<linearGradient id="paint2_linear_3921_130040" x1="-16.0663" y1="52.9373" x2="-15.8645" y2="52.9373" gradientUnits="userSpaceOnUse">
<stop stop-color="#9300E1"/>
<stop offset="1" stop-color="#6625CA"/>
</linearGradient>
</defs>
</svg>
